<?xml version="1.0" standalone="no"?>
<!DOCTYPE svg PUBLIC "-//W3C//DTD SVG 1.1//EN" "http://www.w3.org/Graphics/SVG/1.1/DTD/svg11.dtd" >
<svg xmlns="http://www.w3.org/2000/svg" xmlns:xlink="http://www.w3.org/1999/xlink" version="1.1">
<metadata></metadata>
<defs>
<font id="rabeloregular" horiz-adv-x="1228" >
<font-face units-per-em="2048" ascent="1638" descent="-410" />
<missing-glyph horiz-adv-x="716" />
<glyph horiz-adv-x="0" />
<glyph horiz-adv-x="0" />
<glyph horiz-adv-x="682" />
<glyph unicode="&#xd;" horiz-adv-x="0" />
<glyph unicode=" "  horiz-adv-x="716" />
<glyph unicode="&#x09;" horiz-adv-x="716" />
<glyph unicode="&#xa0;" horiz-adv-x="716" />
<glyph unicode="!" horiz-adv-x="428" d="M82 131q0 55 39 94t94 39t93 -38.5t38 -94.5q0 -54 -38 -92.5t-93 -38.5t-94 38.5t-39 92.5zM123 1452h184l-20 -999h-144z" />
<glyph unicode="&#x22;" horiz-adv-x="710" d="M123 1114v399h180l-90 -399h-90zM442 1114v399h181l-88 -399h-93z" />
<glyph unicode="#" horiz-adv-x="1501" d="M39 514l24 90h322l102 375h-319l25 92h321l135 492h131l-135 -492h367l137 492h131l-137 -492h321l-24 -92h-322l-104 -375h321l-24 -90h-322l-135 -491h-131l135 491h-369l-135 -491h-131l135 491h-319zM516 604h367l104 375h-366z" />
<glyph unicode="$" horiz-adv-x="1148" d="M68 78l20 98q17 -7 49 -17t134.5 -27t209.5 -17h29v544q-54 17 -92.5 30t-88.5 34t-84 42t-70 51t-57.5 63t-35.5 77.5t-14 94.5q0 164 116.5 277t325.5 140v95h139v-86q76 -1 151 -17.5t112 -32.5l36 -16l-20 -88q-9 4 -28.5 10.5t-91.5 17t-159 11.5v-545 q54 -17 93 -30t88.5 -34t84 -42t70.5 -51t57.5 -63t35.5 -77t14 -94q0 -67 -11.5 -122.5t-42 -108t-79.5 -90.5t-127.5 -65t-182.5 -36v-90h-139v86q-105 3 -215.5 22.5t-168.5 37.5zM270 1051q0 -35 17.5 -64.5t52.5 -52t74.5 -39.5t95.5 -35v488q-115 -26 -177.5 -102.5 t-62.5 -194.5zM649 131q240 52 240 295q0 47 -34 84t-82 59.5t-124 46.5v-485z" />
<glyph unicode="%" horiz-adv-x="2129" d="M78 1018q0 234 113.5 366t289.5 132q177 0 290.5 -132t113.5 -366q0 -232 -114 -364t-290 -132t-289.5 132t-113.5 364zM236 1018q0 -203 66.5 -303.5t178.5 -100.5q110 0 178 102.5t68 301.5q0 204 -67.5 303.5t-178.5 99.5t-178 -101t-67 -302zM492 -41l1007 1602h139 l-1007 -1602h-139zM1245 512q0 232 114 364t290 132t289.5 -132t113.5 -364q0 -234 -113.5 -366t-289.5 -132q-177 0 -290.5 132t-113.5 366zM1403 512q0 -204 67.5 -303.5t178.5 -99.5t178 101t67 302q0 203 -66.5 303t-178.5 100q-110 0 -178 -102t-68 -301z" />
<glyph unicode="&#x26;" horiz-adv-x="1284" d="M86 440q0 62 19.5 120t46.5 98t64.5 76.5t65 56t56.5 36.5q-166 182 -166 306q0 164 106 254t277 90q53 0 103.5 -11t85.5 -26.5t62.5 -31.5t40.5 -27l13 -11l-20 -88q-15 9 -41 22.5t-96 35.5t-128 22q-118 0 -170.5 -63t-52.5 -166q0 -83 154 -256l498 -574 q79 118 79 246l76 -57q0 -48 -20.5 -122t-67.5 -145l174 -202h-131l-115 116q-150 -139 -395 -139q-111 0 -201.5 29t-148 75t-96.5 105.5t-55.5 117t-16.5 113.5zM287 440q0 -131 92 -228t225 -97q192 0 320 102l-502 520q-54 -36 -94.5 -113t-40.5 -184z" />
<glyph unicode="'" horiz-adv-x="342" d="M123 1114v399h180l-90 -399h-90z" />
<glyph unicode="(" horiz-adv-x="450" d="M53 543q0 146 9.5 269t23 211t39 165.5t47 126t58.5 99.5t61.5 78t66.5 69l39 -70q-71 -71 -113.5 -175.5t-66.5 -294t-24 -478.5t24 -479t66.5 -294.5t113.5 -175.5l-39 -69q-42 42 -67 69.5t-61 78t-58 99.5t-47.5 126t-39 165.5t-23 211t-9.5 268.5z" />
<glyph unicode=")" horiz-adv-x="450" d="M53 -406q71 71 114 175.5t67 294.5t24 479t-24 478.5t-67 294t-114 175.5l39 70q42 -42 66.5 -69t61.5 -78t58.5 -99.5t47 -126t39 -165.5t23 -211t9.5 -269t-9.5 -268.5t-23 -211t-39 -165.5t-47.5 -126t-58 -99.5t-61 -78t-67 -69.5z" />
<glyph unicode="*" horiz-adv-x="847" d="M35 1204l22 68l310 -78l22 319h70l22 -319l310 78l22 -68l-297 -119l170 -272l-57 -41l-205 246l-205 -246l-57 43l170 270z" />
<glyph unicode="+" horiz-adv-x="770" d="M45 610v113h283v285h114v-285h283v-113h-283v-284h-114v284h-283z" />
<glyph unicode="," horiz-adv-x="415" d="M74 -289l106 303q-59 34 -59 101q0 47 34 80.5t81 33.5q50 0 82.5 -20.5t42 -52t5 -67t-23.5 -66.5l-178 -312h-90z" />
<glyph unicode="-" horiz-adv-x="778" d="M123 604v125h528v-125h-528z" />
<glyph unicode="." horiz-adv-x="438" d="M86 131q0 55 39 94t94 39t93 -38.5t38 -94.5q0 -54 -38 -92.5t-93 -38.5t-94 38.5t-39 92.5z" />
<glyph unicode="/" horiz-adv-x="684" d="M12 -41l520 1602h140l-520 -1602h-140z" />
<glyph unicode="0" d="M39 709q0 168 44 303t121.5 223t182 135t227.5 47t227.5 -47t182.5 -135t122 -223t44 -303t-44 -303t-122 -223.5t-182.5 -135.5t-227.5 -47t-227.5 47t-182 135.5t-121.5 223.5t-44 303zM233 675.5q0 -21.5 6 -83t18 -117.5t40 -124t67 -117.5t104 -83t146 -33.5 q64 0 118 20.5t91 54.5t67 78.5t47.5 93.5t30 98t17.5 93.5t7.5 78.5t2.5 54v21v33.5t-6 82.5t-18 116.5t-40 123.5t-67 117t-104 82.5t-146 33.5t-146 -32.5t-104 -84.5t-67 -114.5t-40 -125.5t-18 -115t-6 -84v-33v-33.5z" />
<glyph unicode="1" d="M369 1143l280 256h189v-1376h-189v1163l-239 -121z" />
<glyph unicode="2" d="M113 23v118q0 89 39 170t101 142.5t137 118.5t150 108t137 101t101 107.5t39 117.5q0 80 -25 140t-67 93t-89.5 48.5t-100.5 15.5q-60 0 -116.5 -12.5t-95 -30.5t-68.5 -36.5t-44 -31.5l-14 -12l-19 77q5 7 15.5 17.5t47.5 38.5t78 49.5t108 39t138 17.5q63 0 125.5 -16 t121 -49.5t103.5 -81t72 -116.5t27 -150q0 -78 -39.5 -152t-101.5 -133t-137 -115t-148 -107.5t-132 -101.5t-91.5 -106t-24.5 -111l670 -18v-139h-897z" />
<glyph unicode="3" d="M102 121l19 78q18 -9 48.5 -22.5t119.5 -36.5t170 -23q149 0 226 83t77 236q0 70 -30 124t-81 85.5t-111.5 47.5t-127.5 16v102q139 0 224 56.5t85 174.5q0 129 -73.5 192.5t-188.5 63.5q-55 0 -123.5 -20t-109.5 -40l-42 -19l-20 77q5 5 14.5 13t42.5 28.5t69.5 36 t93.5 28.5t116 13q88 0 162.5 -20.5t132 -61.5t90.5 -108.5t33 -155.5q0 -120 -78 -209.5t-191 -89.5q100 0 176.5 -51.5t115 -131.5t38.5 -173q0 -190 -123 -302t-352 -112q-68 0 -134 12.5t-112.5 30.5t-83 35.5t-54.5 29.5z" />
<glyph unicode="4" d="M41 412v116l629 871h188v-862l174 -9v-116h-174v-389h-188v389h-629zM266 565l404 -18v608z" />
<glyph unicode="5" d="M127 80l18 78q175 -41 318 -41q169 0 256.5 99.5t87.5 268.5q0 210 -145 298.5t-461 88.5l67 523h633v-115l-481 -16l-39 -308q103 -5 189 -19.5t173 -48.5t146.5 -84t97 -131.5t37.5 -187.5q0 -227 -137.5 -356t-397.5 -129q-92 0 -182.5 20t-134.5 40z" />
<glyph unicode="6" d="M86 723q0 142 36 267t103 220.5t173 151t237 55.5q76 0 147.5 -16.5t120 -40.5t86 -48t55.5 -40l17 -17l-19 -77q-6 5 -17 13t-48 28.5t-78 36.5t-105 29t-130 13q-84 0 -150.5 -33t-107.5 -84.5t-68.5 -123t-39.5 -139.5t-15 -144q129 66 366 66q496 0 496 -377 q0 -213 -135.5 -338t-352.5 -125q-141 0 -245 39.5t-178 125t-111 225t-37 333.5zM295 483q23 -194 104 -288.5t250 -94.5q61 0 112 18t95 58t69 113.5t25 173.5q0 276 -301 276q-80 0 -138.5 -7.5t-97 -24t-62 -36t-35.5 -51.5t-16 -62t-5 -75z" />
<glyph unicode="7" d="M193 1282v115h802v-115l-450 -1259h-178l413 1243z" />
<glyph unicode="8" d="M117 463q0 253 223 336q-141 83 -141 278q0 340 415 340q416 0 416 -340q0 -196 -143 -278q225 -82 225 -336q0 -116 -40.5 -206.5t-110 -145.5t-158 -83t-189.5 -28t-189 28t-158 83t-110 145.5t-40 206.5zM313 463q0 -100 25 -173.5t69 -113.5t95 -58t112 -18t112 18 t95 58t69 113.5t25 173.5q0 276 -301 276t-301 -276zM395 1077q0 -125 55.5 -181t163.5 -56t164 56t56 181t-56 182.5t-164 57.5t-163.5 -57.5t-55.5 -182.5z" />
<glyph unicode="9" d="M84 954q0 212 136 337.5t353 125.5q141 0 244.5 -39.5t177.5 -125t111 -225t37 -333.5q0 -143 -35.5 -268t-102.5 -220.5t-172.5 -150.5t-236.5 -55q-76 0 -147.5 16.5t-120 40.5t-86 48t-54.5 41l-18 16l18 78q6 -5 17 -13.5t48.5 -29.5t78.5 -37t105 -29.5t130 -13.5 q84 0 150.5 33t107.5 84.5t68.5 123t38.5 140.5t14 145q-124 -65 -364 -65q-498 0 -498 376zM281 954q0 -276 301 -276q79 0 137.5 7.5t97 24t62.5 36t36 51.5t16 62t5 75q-23 194 -104 288.5t-250 94.5q-61 0 -112 -18t-95 -58t-69 -113.5t-25 -173.5z" />
<glyph unicode=":" horiz-adv-x="462" d="M98 131q0 55 39 94t94 39t93 -38.5t38 -94.5q0 -54 -38 -92.5t-93 -38.5t-94 38.5t-39 92.5zM98 936q0 56 39 94.5t94 38.5t93 -38.5t38 -94.5q0 -54 -38 -92.5t-93 -38.5t-94 38.5t-39 92.5z" />
<glyph unicode=";" horiz-adv-x="421" d="M68 -289l106 303q-59 34 -59 101q0 47 33.5 80.5t80.5 33.5q50 0 82.5 -20.5t42.5 -52t5.5 -67t-23.5 -66.5l-178 -312h-90zM106 936q0 55 39 94t95 39q54 0 92.5 -39t38.5 -94q0 -54 -38.5 -92.5t-92.5 -38.5q-55 0 -94.5 38.5t-39.5 92.5z" />
<glyph unicode="&#x3c;" horiz-adv-x="833" d="M74 629v71l483 306h197l-521 -342l521 -340h-197z" />
<glyph unicode="=" horiz-adv-x="925" d="M123 485v115h680v-115h-680zM123 729v115h680v-115h-680z" />
<glyph unicode="&#x3e;" horiz-adv-x="839" d="M80 324l520 340l-520 342h196l484 -306v-71l-484 -305h-196z" />
<glyph unicode="?" horiz-adv-x="782" d="M51 1370q5 4 15 11.5t42 26t65.5 32.5t83 25.5t97.5 11.5q180 0 282.5 -90t102.5 -254q0 -71 -25.5 -135t-63.5 -109.5t-83 -96.5t-83 -96.5t-63.5 -109t-25.5 -133.5h-143q0 73 16.5 138t42.5 114t57.5 93.5t63.5 84t58 77.5t42.5 82.5t16.5 90.5q0 229 -215 229 q-58 0 -123.5 -20t-102.5 -40l-36 -20zM193 131q0 56 38 94.5t93 38.5t93 -38.5t38 -94.5q0 -54 -38 -92.5t-93 -38.5t-93 38.5t-38 92.5z" />
<glyph unicode="@" horiz-adv-x="1525" d="M90 551q0 219 78 383.5t233 257t371 92.5t371 -92.5t233 -257t78 -383.5q0 -107 -24.5 -192t-64 -135.5t-90.5 -80t-104 -32t-104 16.5t-90 58q-29 29 -39 121q-57 -133 -211 -133q-131 0 -214 60.5t-83 187.5q0 105 82 161t223 56q69 0 199 -14v12q0 42 -8.5 77 t-29.5 69.5t-64 54.5t-105 20q-36 0 -76.5 -2.5t-62.5 -5.5l-23 -2l-14 47q96 37 176 37q99 0 171 -25t110.5 -68.5t55.5 -93t17 -108.5q0 -33 -2 -97.5t-2.5 -113t0.5 -102t8.5 -89.5t20.5 -49q44 -44 90 4q66 67 82 257q4 49 4 104q0 131 -27.5 240t-75.5 184.5 t-113 127.5t-139 76.5t-155 24.5t-155 -24.5t-139 -76.5t-113 -127.5t-75.5 -184.5t-27.5 -240q0 -163 42 -291t114 -205.5t162 -117t192 -39.5q80 0 160 13t120 25l40 13l43 -27q-6 -4 -16.5 -11.5t-46.5 -25.5t-75 -32t-100.5 -25.5t-124.5 -11.5q-216 0 -371 93t-233 258 t-78 384zM580 422q0 -174 147 -174q55 0 96.5 21.5t64 56t33.5 70t11 69.5q2 65 2 100h-199q-62 0 -108.5 -40.5t-46.5 -102.5z" />
<glyph unicode="A" horiz-adv-x="1269" d="M53 23l471 1429h221l472 -1429h-189l-133 442q-1 0 -113.5 -5t-146.5 -5t-146.5 5t-113.5 5l-133 -442h-189zM406 563q204 6 229 6t229 -6l-229 756z" />
<glyph unicode="B" horiz-adv-x="1196" d="M123 23v1429h516q89 0 153 -16.5t114.5 -56.5t76 -113.5t25.5 -180.5q0 -220 -113 -303q215 -80 215 -364q0 -110 -29 -188.5t-83 -122.5t-121.5 -64t-155.5 -20h-598zM309 119h412q96 0 147.5 76t51.5 223q0 145 -60.5 224t-159.5 79h-391v-602zM309 799l359 14 q84 12 121.5 77t37.5 195q0 141 -43 203.5t-145 65.5l-330 10v-565z" />
<glyph unicode="C" horiz-adv-x="1286" d="M88 737q0 356 168.5 548t517.5 192q102 0 191 -19t127 -38l38 -19l-20 -98q-13 5 -38 13.5t-112 22t-186 13.5q-229 0 -355 -163.5t-126 -451.5q0 -289 126 -450.5t355 -161.5q112 0 220 23t160 46l52 23l21 -98q-7 -5 -21 -13t-60 -28.5t-95.5 -36t-125 -28.5 t-151.5 -13q-686 0 -686 737z" />
<glyph unicode="D" horiz-adv-x="1306" d="M123 23v1429h455q142 0 251 -35t182 -98t119.5 -158t66.5 -209t20 -256q0 -168 -32.5 -289t-106 -209t-198 -131.5t-302.5 -43.5h-455zM311 111l267 8q239 9 335.5 145.5t96.5 431.5q0 149 -22 264t-71 204t-134.5 137.5t-204.5 52.5l-267 10v-1253z" />
<glyph unicode="E" horiz-adv-x="950" d="M123 23v1429h778v-88l-608 -8l16 -572l412 -10v-76l-410 -8v-571l631 -10v-86h-819z" />
<glyph unicode="F" horiz-adv-x="901" d="M123 23v1429h778v-88l-608 -8l16 -572l412 -10v-76l-410 -8v-667h-188z" />
<glyph unicode="G" horiz-adv-x="1343" d="M84 737q0 351 184 545.5t535 194.5q102 0 191 -19t127 -38l38 -19l-20 -98q-13 5 -38 13.5t-112 22t-186 13.5q-232 0 -373 -166t-141 -449q0 -284 140.5 -448t373.5 -164q132 0 272 35l19 530h-295v76l456 20v-667q-7 -5 -21 -13t-59.5 -28.5t-95 -36t-125 -28.5 t-151.5 -13q-353 0 -536 195.5t-183 541.5z" />
<glyph unicode="H" horiz-adv-x="1300" d="M123 23v1429h184v-666q31 1 109.5 3t143.5 4t89 2q32 0 174.5 -4t167.5 -5v666h185v-1429h-185v665q-29 -1 -110 -3t-144.5 -3.5t-87.5 -1.5t-87.5 1.5t-146 3.5t-108.5 3v-665h-184z" />
<glyph unicode="I" horiz-adv-x="450" d="M133 23v1429h184v-1429h-184z" />
<glyph unicode="J" horiz-adv-x="671" d="M2 37l12 67h164q111 0 152 74t41 250v1024h184v-1024q0 -84 -11.5 -150.5t-29.5 -111t-48.5 -76t-59.5 -49t-71.5 -27t-76 -12t-80.5 -2.5q-44 0 -88 9t-66 19z" />
<glyph unicode="K" horiz-adv-x="1214" d="M123 23v1429h184v-707l524 707h240l-590 -698l713 -731h-254l-549 624l-84 -96v-528h-184z" />
<glyph unicode="L" horiz-adv-x="901" d="M123 23v1429h188v-1333l590 -10v-86h-778z" />
<glyph unicode="M" horiz-adv-x="1591" d="M123 23v1429h205l467 -1212l467 1212h204v-1429h-184v1077l-401 -1077h-170l-404 1077v-1077h-184z" />
<glyph unicode="N" horiz-adv-x="1337" d="M123 23v1429h203l702 -1186v1186h184v-1429h-202l-705 1179v-1179h-182z" />
<glyph unicode="O" horiz-adv-x="1556" d="M92 737q0 175 41 310.5t123.5 232t214 147t307.5 50.5t307.5 -50.5t214 -147t123.5 -232t41 -310.5q0 -737 -686 -737t-686 737zM297 737q0 -289 126 -450.5t355 -161.5t355.5 162t126.5 450t-126.5 451.5t-355.5 163.5t-355 -163.5t-126 -451.5z" />
<glyph unicode="P" horiz-adv-x="1130" d="M123 23v1429h598q88 0 155.5 -20t121.5 -64.5t83 -123.5t29 -189q0 -396 -389 -396h-412v-636h-186zM309 745l412 11q100 5 149.5 78t49.5 221t-49.5 221t-149.5 78l-412 10v-619z" />
<glyph unicode="Q" horiz-adv-x="1548" d="M80 737q0 175 41 310.5t123.5 232t214 147t307.5 50.5t307.5 -50.5t214 -147t123.5 -232t41 -310.5q0 -439 -248 -618l193 -158l-88 -63l-234 151q-128 -49 -309 -49q-686 0 -686 737zM285 737q0 -289 126 -450.5t355 -161.5q83 0 160 25l-183 118l142 111l182 -150 q180 157 180 508q0 288 -126 451.5t-355 163.5t-355 -163.5t-126 -451.5z" />
<glyph unicode="R" horiz-adv-x="1243" d="M123 23v1429h598q88 0 155.5 -20t121.5 -64.5t83 -123.5t29 -189q0 -295 -211 -369q98 -51 149.5 -143t51.5 -199q0 -75 8.5 -128.5t27.5 -90.5t33.5 -55.5t42.5 -46.5h-194q-51 51 -69.5 126t-18.5 183q0 69 -20.5 125.5t-53.5 93t-76.5 61.5t-88 36t-89.5 11h-293v-636 h-186zM309 745l412 11q100 5 149.5 78t49.5 221t-49.5 221t-149.5 78l-412 10v-619z" />
<glyph unicode="S" horiz-adv-x="1204" d="M72 78l20 98q18 -7 52 -17t142 -27t220 -17q226 0 329 78.5t103 232.5q0 55 -48 95.5t-124 67.5t-168.5 52t-185 57.5t-168.5 75t-124 113.5t-48 164q0 189 158.5 307.5t439.5 118.5q83 0 163.5 -16.5t120.5 -32.5l39 -17l-20 -88q-10 4 -31 10.5t-99 17.5t-173 11 q-182 0 -286.5 -81.5t-104.5 -229.5q0 -55 48 -96t124 -67.5t168.5 -52t185 -58t168.5 -75t124 -113t48 -163.5q0 -73 -14.5 -132.5t-53.5 -116t-102.5 -94t-167 -60.5t-240.5 -23q-116 0 -239.5 19.5t-189.5 38.5z" />
<glyph unicode="T" horiz-adv-x="1103" d="M25 1348v104h1052v-104q-278 -7 -434 -11v-1314h-184v1314z" />
<glyph unicode="U" horiz-adv-x="1294" d="M102 469v983h183v-983q0 -118 50 -201t130.5 -121t181.5 -38t181 38t130 121t50 201v983h184v-983q0 -96 -32 -178.5t-96 -148.5t-171 -104t-246 -38t-246 38t-171 104t-96 148.5t-32 178.5z" />
<glyph unicode="V" horiz-adv-x="1302" d="M51 1450h209l391 -1272l391 1272h209l-491 -1427h-217z" />
<glyph unicode="W" horiz-adv-x="2027" d="M80 1450h209l309 -1268l309 1268h211l309 -1268l312 1268h209l-410 -1427h-217l-307 1124l-307 -1124h-218z" />
<glyph unicode="X" horiz-adv-x="1388" d="M53 23l537 755l-486 674h218l372 -563l373 563h217l-485 -674l536 -755h-227l-414 632l-413 -632h-228z" />
<glyph unicode="Y" horiz-adv-x="1257" d="M39 1452h209l381 -676l381 676h209l-498 -797v-632h-184v632z" />
<glyph unicode="Z" horiz-adv-x="1224" d="M72 23v116l790 1157l-758 19v137h1020v-119l-800 -1157l821 -16v-137h-1073z" />
<glyph unicode="[" horiz-adv-x="493" d="M123 -475v2036h352v-113h-215v-1804h215v-119h-352z" />
<glyph unicode="\" horiz-adv-x="684" d="M12 1561h140l520 -1602h-140z" />
<glyph unicode="]" horiz-adv-x="493" d="M18 -356h215v1804h-215v113h353v-2036h-353v119z" />
<glyph unicode="^" horiz-adv-x="1077" d="M47 569l445 822h94l444 -822h-160l-331 682l-332 -682h-160z" />
<glyph unicode="_" horiz-adv-x="1320" d="M123 -145h1073v-70h-1073v70z" />
<glyph unicode="`" horiz-adv-x="409" d="M14 1513h181l170 -311h-91z" />
<glyph unicode="a" horiz-adv-x="1095" d="M66 360q0 156 108 231t334 75q44 0 101.5 -2.5t112 -6t66.5 -4.5v13q0 89 -30.5 162t-95.5 120t-154 47q-73 0 -134 -7.5t-86 -15.5l-24 -7l-20 65q11 6 31.5 15t89 24.5t143.5 15.5q240 0 350.5 -111t110.5 -308q-1 -89 -11 -265q-6 -106 -6 -178q0 -49 3 -81 q7 -82 44 -119h-159q-43 43 -56 133q-84 -156 -286 -156q-99 0 -176 20.5t-124.5 54t-77.5 81.5t-42 97.5t-12 106.5zM258 360q0 -270 240 -270q116 0 198 63.5t82 163.5l4 116t4 140h-278q-111 0 -180.5 -49t-69.5 -164z" />
<glyph unicode="b" horiz-adv-x="1183" d="M96 23q74 72 74 643v897h178v-619q79 141 293 141q97 0 169.5 -14.5t135 -51.5t101.5 -98.5t61 -158t22 -227.5q0 -143 -24 -240.5t-80.5 -165.5t-150.5 -98.5t-234 -30.5q-111 0 -193 52t-118 165q-22 -142 -74 -194h-160zM346 408q1 -66 16 -120.5t48 -100.5 t91.5 -71.5t139.5 -25.5q73 0 125.5 19t86 53t53 90.5t27 123t7.5 159.5q0 247 -74.5 353.5t-224.5 106.5q-139 0 -210 -56.5t-83 -186.5q0 -266 -2 -344z" />
<glyph unicode="c" horiz-adv-x="997" d="M88 543q0 94 14 171t50 147.5t93 118.5t148 76.5t211 28.5q73 0 138.5 -13.5t94.5 -27.5l29 -14l-20 -86q-78 31 -242 31q-162 0 -245 -110t-83 -322t83 -322t245 -110q84 0 161.5 15.5t113.5 31.5l36 16l21 -86q-6 -4 -16 -9.5t-44.5 -21t-70.5 -27t-91 -21t-110 -9.5 q-120 0 -211.5 28.5t-148.5 76.5t-92.5 119t-49.5 148t-14 171z" />
<glyph unicode="d" horiz-adv-x="1183" d="M53 535q0 131 22.5 227.5t62 158t102.5 98.5t135.5 51.5t169.5 14.5q215 0 291 -141v619h180v-897q0 -572 71 -643h-157q-52 52 -74 194q-73 -217 -311 -217q-140 0 -234.5 31t-151.5 98t-81.5 165t-24.5 241zM246 535q0 -93 7.5 -159.5t27 -123t53 -90.5t86 -53 t125.5 -19q81 0 139.5 25.5t91.5 71.5t48 100.5t16 120.5l-4 344q-10 130 -81 186.5t-210 56.5q-150 0 -224.5 -106.5t-74.5 -353.5z" />
<glyph unicode="e" horiz-adv-x="1142" d="M94 543q0 542 506 542q102 0 185 -27.5t134.5 -70.5t86.5 -99.5t49 -111.5t14 -110v-93h-795v-30q0 -215 83 -334t243 -119q87 0 179.5 21t142.5 42l49 21l20 -86q-5 -4 -15 -9.5t-45.5 -21t-77 -27t-110 -21t-143.5 -9.5q-116 0 -205 28.5t-145 76.5t-92 119t-50 148 t-14 171zM281 651q29 1 170 5t273 7t181 3q0 137 -80.5 233t-224.5 96q-139 0 -219.5 -90t-99.5 -254z" />
<glyph unicode="f" horiz-adv-x="765" d="M51 979v106h135v78q0 100 16.5 172t57.5 131t118.5 89t192.5 30q41 0 87 -10.5t72 -21.5l26 -11l-21 -65q-82 16 -164 16q-204 0 -204 -330v-78h245v-106l-245 -14v-942h-181v944z" />
<glyph unicode="g" horiz-adv-x="1204" d="M61 -162q0 99 46 161t143 91q-68 52 -68 160q0 42 24.5 58.5t117.5 23.5q-59 24 -98 60.5t-58.5 85t-27 97t-7.5 111.5q0 51 4 91t16.5 83t33.5 74.5t56 61.5t83.5 48.5t117 29.5t154.5 11q237 0 348 -84q43 8 85 21t63 22l20 9l21 -66q-48 -55 -105 -94q33 -75 33 -207 q0 -59 -6.5 -104.5t-23.5 -93.5t-50 -82t-83 -61.5t-126.5 -41.5t-175.5 -14q-85 0 -131.5 -1.5t-71 -6.5t-30 -11.5t-5.5 -19.5q0 -34 26.5 -54t71.5 -27.5t103 -10.5t122.5 -6t128.5 -9.5t122 -26.5t103 -52t71.5 -89.5t26.5 -136.5q0 -46 -10.5 -85.5t-45 -83t-91 -73.5 t-156.5 -49.5t-234 -19.5t-234 19.5t-156.5 49.5t-91 73.5t-45 83t-10.5 85.5zM233 -162q0 -221 365 -221q189 0 277 61t88 160q0 68 -41.5 106t-114.5 50t-149.5 15.5t-169 10t-150.5 25.5q-105 -50 -105 -207zM313 686q0 -156 64 -231.5t221 -75.5t221 75.5t64 231.5 q0 158 -64 233.5t-221 75.5t-221 -75.5t-64 -233.5z" />
<glyph unicode="h" horiz-adv-x="1155" d="M123 23v1540h180v-625q72 147 250 147q97 0 167.5 -14.5t130.5 -51.5t96.5 -99t56.5 -157.5t20 -227.5v-512h-193v512q0 252 -65 356t-213 104q-103 0 -171 -59.5t-79 -187.5v-725h-180z" />
<glyph unicode="i" horiz-adv-x="507" d="M131 1386q0 51 36 87t87 36t87 -36t36 -87t-36 -86.5t-87 -35.5t-87 35.5t-36 86.5zM164 23v1046h180v-1046h-180z" />
<glyph unicode="j" horiz-adv-x="733" d="M0 -432l20 65q82 -16 164 -16q205 0 205 330v1122h180v-1122q0 -79 -9.5 -139.5t-35.5 -115t-68.5 -89.5t-111 -55.5t-160.5 -20.5q-41 0 -87 10.5t-71 20.5zM356 1386q0 51 36 87t87 36t87 -36t36 -87t-36 -86.5t-87 -35.5t-87 35.5t-36 86.5z" />
<glyph unicode="k" horiz-adv-x="1081" d="M123 23v1540h180v-1008l412 514h235l-456 -471l579 -575h-227l-449 475l-94 -97v-378h-180z" />
<glyph unicode="l" horiz-adv-x="446" d="M133 23v1540h180v-1540h-180z" />
<glyph unicode="m" horiz-adv-x="1763" d="M123 23v1046h180v-131q75 147 250 147q137 0 226 -41t139 -135q69 176 299 176q151 0 243 -50.5t139.5 -172t47.5 -327.5v-512h-193v512q0 262 -48 361t-189 99q-83 0 -144.5 -38t-89.5 -119v-815h-192v512q0 107 -6 179t-21.5 129t-43 88.5t-68 47.5t-99.5 16 q-103 0 -171 -59.5t-79 -187.5v-725h-180z" />
<glyph unicode="n" horiz-adv-x="1134" d="M123 23v1046h180v-131q72 147 250 147q97 0 167.5 -14.5t130.5 -51.5t96.5 -99t56.5 -157.5t20 -227.5v-512h-193v512q0 252 -65 356t-213 104q-103 0 -171 -59.5t-79 -187.5v-725h-180z" />
<glyph unicode="o" horiz-adv-x="1200" d="M94 543q0 95 13 171t47.5 147.5t90 119t145.5 76t210 28.5q119 0 209 -28.5t145.5 -76t90.5 -119t48 -147.5t13 -171t-13 -171.5t-48 -147.5t-90.5 -119t-145.5 -76.5t-209 -28.5q-120 0 -210 28.5t-145.5 76.5t-90 119.5t-47.5 147.5t-13 171zM274 543q0 -215 83 -334 t243 -119t243 119t83 334q0 214 -83 333t-243 119t-243 -119t-83 -333z" />
<glyph unicode="p" horiz-adv-x="1183" d="M96 1063h160q52 -52 74 -195q69 217 311 217q140 0 234 -30.5t150.5 -98t80.5 -165t24 -240.5q0 -110 -14.5 -195t-44.5 -145.5t-70 -101.5t-97 -65t-120 -34t-143 -10q-214 0 -293 141v-575h-178v856q0 569 -74 641zM346 678l2 -344q12 -129 83.5 -186.5t209.5 -57.5 q150 0 224.5 107t74.5 354q0 93 -7.5 159.5t-27 123t-53 90.5t-86 52.5t-125.5 18.5q-81 0 -139.5 -25.5t-91.5 -71.5t-48 -100t-16 -120z" />
<glyph unicode="q" horiz-adv-x="1183" d="M53 551q0 143 24.5 240.5t81.5 165t151.5 98t234.5 30.5q239 0 311 -217q22 143 74 195h157q-71 -71 -71 -641v-856h-180v575q-76 -141 -291 -141q-97 0 -169.5 14.5t-135.5 51.5t-102.5 99t-62 158.5t-22.5 227.5zM246 551q0 -247 74.5 -354t224.5 -107 q138 0 209.5 57.5t81.5 186.5q2 266 4 344q-1 66 -16 120t-48 100t-91.5 71.5t-139.5 25.5q-73 0 -125.5 -18.5t-86 -52.5t-53 -90.5t-27 -123t-7.5 -159.5z" />
<glyph unicode="r" horiz-adv-x="768" d="M82 1063h160q51 -51 73 -195q72 217 312 217q24 0 54.5 -9.5t48.5 -19.5l18 -9v-113q-60 20 -121 20q-80 0 -140 -25t-92.5 -67t-48.5 -88q-15 -44 -14 -92v-6l2 -653h-178v399q0 569 -74 641z" />
<glyph unicode="s" horiz-adv-x="915" d="M74 55l20 66q98 -31 264 -31q161 0 239.5 59t78.5 181q0 36 -26 61.5t-68 39t-96.5 27.5t-110.5 25t-110.5 32.5t-96.5 49.5t-68 77t-26 114q0 158 112 243.5t324 85.5q71 0 127 -11.5t76 -22.5l20 -11l-20 -65q-39 20 -203 20q-118 0 -187 -64.5t-69 -174.5 q0 -40 33 -66.5t86.5 -41.5t117.5 -28t128 -32.5t117.5 -48t86.5 -82t33 -127.5q0 -76 -24.5 -133.5t-80 -103t-154.5 -69.5t-239 -24q-76 0 -147 14t-104 28z" />
<glyph unicode="t" horiz-adv-x="694" d="M45 983v107h137v284l178 56v-340h248v-107l-248 -16v-545q0 -202 24.5 -267t107.5 -65q36 0 77 4t63 8l23 4l21 -65q-92 -41 -184 -41q-178 0 -244 91.5t-66 330.5v549z" />
<glyph unicode="u" horiz-adv-x="1124" d="M109 551v512h192v-512q0 -252 65.5 -356.5t213.5 -104.5q103 0 170.5 60t78.5 188v725h181v-1045h-181v129q-72 -147 -249 -147q-121 0 -204 24t-145.5 84.5t-92 169.5t-29.5 273z" />
<glyph unicode="v" horiz-adv-x="1083" d="M49 1069h203l289 -903l288 903h203l-403 -1046h-176z" />
<glyph unicode="w" horiz-adv-x="1626" d="M80 1069h201l219 -901l227 901h172l225 -905l222 905h200l-321 -1046h-176l-236 819l-235 -819h-179z" />
<glyph unicode="x" horiz-adv-x="1089" d="M53 23l396 544l-365 502h203l258 -426l258 426h203l-365 -502l395 -544h-202l-289 448l-289 -448h-203z" />
<glyph unicode="y" horiz-adv-x="1062" d="M59 1069h203l283 -852l297 852h192l-571 -1542h-160l174 500z" />
<glyph unicode="z" horiz-adv-x="983" d="M88 23v96l547 815l-526 18v117h757v-96l-557 -817l578 -17v-116h-799z" />
<glyph unicode="{" horiz-adv-x="413" d="M10 512v61q47 0 97.5 85.5t50.5 195.5q0 40 -9 99.5t-17.5 105.5t-7 109.5t16.5 120.5t59 129t115 143l39 -70q-61 -61 -89.5 -128t-27.5 -134.5t11.5 -126.5t24.5 -131.5t14 -122.5q0 -92 -36 -172t-87 -133q50 -50 86.5 -131.5t36.5 -173.5q0 -50 -14 -122.5 t-24.5 -132t-11.5 -126.5t27.5 -134.5t89.5 -128.5l-39 -67q-71 71 -115 142t-59 128t-16.5 120.5t7 109.5t17.5 105.5t9 100.5q0 108 -50.5 193.5t-97.5 85.5z" />
<glyph unicode="|" horiz-adv-x="413" d="M137 -475v2036h139v-2036h-139z" />
<glyph unicode="}" horiz-adv-x="413" d="M57 -406q61 61 89.5 128t27.5 134.5t-11 127t-24 132t-14 122.5q0 92 36.5 173.5t86.5 131.5q-51 53 -87 133t-36 172q0 50 14 122.5t24 131.5t11 126.5t-27.5 134.5t-89.5 128l39 70q71 -71 115 -143t59 -129t16.5 -120.5t-7 -109.5t-17 -105.5t-8.5 -99.5 q0 -110 50 -195.5t97 -85.5v-61q-47 0 -97 -85.5t-50 -193.5q0 -45 12.5 -119t17.5 -132.5t-3 -132.5t-54 -156t-131 -166z" />
<glyph unicode="~" horiz-adv-x="1069" d="M45 551q0 75 23.5 124t66 73.5t108.5 28t145 -9.5t183 -42q72 -21 127.5 -32.5t93 -15.5t63 0.5t39 11.5t20.5 23.5t8.5 29.5t1.5 36h104q0 -74 -23.5 -123t-66 -73t-107.5 -28t-143 8.5t-178 41.5q-360 106 -360 -53h-105z" />
<glyph unicode="&#xa1;" horiz-adv-x="428" d="M80 846q0 54 39 92.5t94 38.5t93 -38.5t38 -92.5q0 -56 -38 -94.5t-93 -38.5t-94 38.5t-39 94.5zM121 -473h184l-20 997h-144z" />
<glyph unicode="&#xa2;" horiz-adv-x="960" d="M66 543q0 106 19 191t62.5 158.5t123 121t192.5 63.5v125h137v-117q68 -2 129 -15.5t88 -26.5l27 -13l-21 -86q-71 29 -223 31v-864q79 2 152.5 17.5t107.5 30.5l33 15l20 -86q-14 -9 -40.5 -23t-108 -38t-164.5 -27v-115h-137v123q-114 16 -193.5 63.5t-123 121.5 t-62 159t-18.5 191zM254 543q0 -340 209 -414v827q-209 -74 -209 -413z" />
<glyph unicode="&#xa3;" horiz-adv-x="1107" d="M80 23v116q97 97 119 518l-119 5v96q53 0 123 2q4 92 4 270q0 73 10.5 133t41 120t79.5 101.5t131.5 67t192.5 25.5q63 0 133 -16.5t109 -32.5l38 -17l-20 -88q-168 39 -260 39q-66 0 -115.5 -18t-79.5 -47.5t-48.5 -74t-25 -90t-6.5 -102.5v-266l459 -6v-96l-461 -9 q-11 -360 -68 -475l754 -18v-137h-991z" />
<glyph unicode="&#xa5;" horiz-adv-x="1269" d="M45 1452h209l381 -676l381 676h209l-383 -614l235 -4v-95l-301 -6l-49 -78v-57l350 -8v-94l-350 -9v-464h-184v464l-350 9v94l350 8v57l-49 78l-301 6v95l235 4z" />
<glyph unicode="&#xa6;" horiz-adv-x="385" d="M123 348h139v-823h-139v823zM123 739v822h139v-822h-139z" />
<glyph unicode="&#xa7;" horiz-adv-x="1079" d="M59 1030q0 68 18.5 132t59.5 121.5t100.5 100.5t146 68t191.5 25q82 0 167.5 -16.5t130.5 -32.5l45 -17l-21 -88q-201 39 -322 39q-147 0 -241 -98t-94 -234q0 -59 24 -111.5t62 -93t84 -80t92 -80.5t84 -86t62 -105.5t24 -129.5h-123q0 55 -27 105.5t-70 90.5 t-95.5 79.5t-105 82t-95.5 88.5t-70 108t-27 132zM160 66l20 88q201 -39 322 -39q147 0 241.5 97.5t94.5 233.5q0 59 -24 111.5t-62 93.5t-84 80.5t-92 80.5t-84 86t-62 105.5t-24 129.5h122q0 -56 27 -106.5t70 -90.5t95.5 -79.5t105 -82t95.5 -88.5t70 -108t27 -132 q0 -86 -31 -164t-91.5 -142t-162 -102t-231.5 -38q-82 0 -167.5 16.5t-130.5 33.5z" />
<glyph unicode="&#xa8;" horiz-adv-x="782" d="M109 1358q0 46 32 78t78 32t79.5 -32.5t33.5 -77.5q0 -46 -33.5 -78.5t-79.5 -32.5t-78 32.5t-32 78.5zM451 1358q0 46 33 78t79 32t78.5 -32t32.5 -78t-32.5 -78.5t-78.5 -32.5t-79 32.5t-33 78.5z" />
<glyph unicode="&#xa9;" horiz-adv-x="1544" d="M90 735q0 218 78 382.5t233 257.5t371 93t371 -93t233 -257.5t78 -382.5q0 -219 -78 -384t-233 -258t-371 -93t-371 93t-233 258t-78 384zM262 735q0 -132 27.5 -241t75.5 -185t113 -128t139 -76.5t155 -24.5t155 24.5t139 76.5t113 128t75.5 185t27.5 241q0 163 -42 291 t-114 205.5t-162 117.5t-192 40t-192 -40t-162 -117.5t-114 -205.5t-42 -291zM373 735q0 82 12 149t43.5 128.5t81 103.5t128.5 67t183 25q65 0 122.5 -12t82.5 -24l25 -13l-17 -63q-70 24 -213 24q-141 0 -217 -100.5t-76 -284.5q0 -185 76 -286t217 -101q74 0 142.5 13 t100.5 27l32 13l16 -63q-5 -3 -13.5 -8.5t-38 -19t-61 -23.5t-80.5 -18.5t-98 -8.5q-104 0 -183 25t-128.5 67t-81 104t-43.5 129.5t-12 149.5z" />
<glyph unicode="&#xaa;" horiz-adv-x="841" d="M72 1006q0 109 75.5 161t235.5 52q47 0 195 -9v9q0 115 -48 167t-147 52q-52 0 -94.5 -6t-58.5 -12l-17 -5l-14 60q7 4 21 10.5t62 17t101 10.5q176 0 257 -70t81 -224q0 -61 -7.5 -184.5t-2.5 -181t32 -83.5h-129q-29 29 -39 92q-60 -108 -200 -108q-70 0 -123.5 14.5 t-87 38t-55 57t-29.5 68t-8 74.5zM223 1006q0 -79 41.5 -129t110.5 -50q82 0 139 40.5t57 109.5q1 18 3.5 73t3.5 93h-195q-74 0 -117 -36t-43 -101z" />
<glyph unicode="&#xab;" horiz-adv-x="937" d="M53 545l299 522h90l-209 -522l209 -522h-90zM442 545l299 522h90l-208 -522l208 -522h-90z" />
<glyph unicode="&#xac;" horiz-adv-x="870" d="M66 610v113h679v-346h-112v233h-567z" />
<glyph unicode="&#xad;" horiz-adv-x="778" d="M123 604v125h528v-125h-528z" />
<glyph unicode="&#xae;" horiz-adv-x="841" d="M90 1124q0 158 89 255.5t243 97.5t242 -97.5t88 -255.5q0 -157 -88 -253.5t-242 -96.5t-243 96.5t-89 253.5zM180 1124q0 -151 69.5 -230t172.5 -79q102 0 172 79t70 230t-70 230.5t-172 79.5q-103 0 -172.5 -79.5t-69.5 -230.5zM283 932v387h163q105 0 105 -109 q0 -78 -57 -98q55 -30 55 -94q0 -59 31 -86h-60q-26 23 -26 84q0 44 -25.5 66t-58.5 22h-68v-172h-59zM342 1130l96 3q28 2 41 20t13 57q0 41 -13 59.5t-41 20.5l-96 2v-162z" />
<glyph unicode="&#xaf;" horiz-adv-x="770" d="M123 1303v108h520v-108h-520z" />
<glyph unicode="&#xb0;" horiz-adv-x="788" d="M86 1147q0 128 90 218.5t219 90.5t219.5 -90.5t90.5 -218.5q0 -129 -90.5 -220t-219.5 -91t-219 91t-90 220zM201 1147q0 -95 57 -161t137 -66t137.5 66t57.5 161q0 93 -57.5 159t-137.5 66t-137 -66t-57 -159z" />
<glyph unicode="&#xb1;" horiz-adv-x="763" d="M41 109h680v114h-680v-114zM41 610v113h283v285h114v-285h283v-113h-283v-284h-114v284h-283z" />
<glyph unicode="&#xb2;" horiz-adv-x="806" d="M94 522v90q0 62 26 118t68 98.5t92 81.5t100.5 74t92.5 69t68 74.5t26 82.5q0 99 -54.5 147t-123.5 48q-73 0 -131.5 -19.5t-81.5 -39.5l-22 -19l-15 59q3 5 9.5 12.5t30.5 27t52.5 34.5t76.5 27t102 12q61 0 114 -15t100 -47t74 -90t27 -137q0 -55 -26.5 -106.5 t-68.5 -91.5t-92.5 -78.5t-99.5 -74t-88 -69.5t-60.5 -73t-15.5 -78l447 -12v-105h-627z" />
<glyph unicode="&#xb3;" horiz-adv-x="792" d="M76 606l14 66q10 -6 27.5 -15.5t74 -25t113.5 -15.5q120 0 177 59.5t57 151.5q0 89 -69 136t-177 47v92q95 0 156 39.5t61 111.5q0 49 -17 83.5t-46 52t-58.5 25t-62.5 7.5q-45 0 -93.5 -13.5t-74.5 -27.5l-25 -14l-14 64q12 9 34 23t85.5 37t121.5 23q61 0 114 -13 t97 -39.5t69.5 -73t25.5 -107.5q0 -99 -60 -158t-147 -59q108 0 180 -74.5t72 -177.5q0 -127 -96.5 -208t-268.5 -81q-68 0 -135.5 21t-100.5 42z" />
<glyph unicode="&#xb4;" horiz-adv-x="411" d="M47 1202l170 311h180l-260 -311h-90z" />
<glyph unicode="&#xb5;" horiz-adv-x="1255" d="M123 -475v1538h192v-512q0 -135 11 -217.5t42 -140t85 -80.5t141 -23q103 0 171 60t79 188v725h180v-752q0 -59 5 -101.5t12 -65t19 -35.5t22.5 -16t25.5 -3q33 0 61 7t40 15l12 7l20 -66q-6 -6 -17 -15t-45.5 -23.5t-70.5 -14.5q-110 0 -170.5 38.5t-81.5 137.5 q-71 -176 -262 -176q-197 0 -299 66l-21 -541h-151z" />
<glyph unicode="&#xb6;" horiz-adv-x="1277" d="M82 1055q0 110 29 189t83 123.5t121.5 64.5t155.5 20h725v-90l-100 -4l-25 -1200h-94v1194l-90 -4v-1325h-189v636q-10 -7 -29 -17t-78.5 -27t-119.5 -17q-172 0 -280.5 119t-108.5 338z" />
<glyph unicode="&#xb7;" horiz-adv-x="440" d="M88 666q0 54 39 92.5t94 38.5t93 -38.5t38 -92.5q0 -56 -38 -95t-93 -39t-94 39t-39 95z" />
<glyph unicode="&#xb8;" horiz-adv-x="442" d="M57 -240l21 56q49 -11 86 -11q24 0 42.5 10t18.5 33q0 25 -30 40.5t-72 15.5v59l57 60h150l-76 -58q54 -10 79 -39t25 -65q0 -64 -42.5 -105t-110.5 -41q-36 0 -73 11.5t-56 22.5z" />
<glyph unicode="&#xb9;" horiz-adv-x="497" d="M25 1327l192 172h152v-962h-152v817l-164 -80z" />
<glyph unicode="&#xba;" horiz-adv-x="892" d="M92 1135q0 61 10 114t35.5 102.5t65 84.5t101.5 56t142 21q97 0 168.5 -31t111 -85.5t57.5 -119.5t18 -142q0 -76 -18 -140.5t-57 -120.5t-110.5 -88t-169.5 -32q-79 0 -141.5 21.5t-102 57.5t-65 86t-35.5 103t-10 113zM236 1135q0 -134 53 -222t157 -88q106 0 158.5 87 t52.5 223q0 135 -53 221t-158 86t-157.5 -86t-52.5 -221z" />
<glyph unicode="&#xbb;" horiz-adv-x="937" d="M106 23l209 522l-209 522h91l299 -522l-299 -522h-91zM496 23l209 522l-209 522h90l299 -522l-299 -522h-90z" />
<glyph unicode="&#xbc;" horiz-adv-x="1814" d="M84 1327l29 -53l163 80v-817h152v962h-152zM287 -41l1007 1602h140l-1008 -1602h-139zM1028 295v102l440 588h154v-582l123 -6v-102h-123v-272h-154v272h-440zM1231 422l237 -12v356z" />
<glyph unicode="&#xbd;" horiz-adv-x="1855" d="M84 1327l29 -53l163 80v-817h152v962h-152zM289 -41l1007 1602h140l-1008 -1602h-139zM1163 23v88q0 63 26 119t67.5 99t91.5 82t100.5 74t92 69t67.5 74.5t26 82.5q0 51 -16.5 90t-43.5 61t-56.5 32.5t-59.5 10.5q-46 0 -87.5 -8t-68 -20t-45.5 -24t-27 -20l-9 -8 l-13 62q3 5 9.5 12.5t30.5 26.5t52.5 34t76.5 27t102 12q47 0 90 -8.5t84.5 -30t71.5 -53.5t48.5 -82.5t18.5 -113.5q0 -55 -26.5 -106.5t-68 -92t-92 -79t-99.5 -74t-88.5 -69.5t-61 -73t-15.5 -78l449 -12v-104h-627z" />
<glyph unicode="&#xbe;" horiz-adv-x="1888" d="M57 606l13 66q10 -6 28 -15.5t74.5 -25t112.5 -15.5q119 0 176 59.5t57 151.5q0 89 -68 136t-176 47v92q94 0 154.5 39.5t60.5 111.5q0 39 -12 69.5t-30 49t-43 30t-48.5 15.5t-48.5 4q-46 0 -94 -13.5t-73 -27.5l-25 -14l-15 64q12 9 34 23t85.5 37t122.5 23 q60 0 113 -13t97 -39.5t69.5 -73t25.5 -107.5q0 -99 -60.5 -158t-146.5 -59q108 0 179 -74t71 -178q0 -128 -95.5 -208.5t-268.5 -80.5q-67 0 -134 21t-101 42zM358 -41l1008 1602h139l-1007 -1602h-140zM1100 295v102l440 588h154v-582l121 -6v-102h-121v-272h-154v272 h-440zM1303 422l237 -12v356z" />
<glyph unicode="&#xbf;" horiz-adv-x="782" d="M43 -129q0 71 25.5 135t63.5 109.5t83 96.5t83 96.5t63.5 109t25.5 133.5h143q0 -99 -30.5 -184.5t-74 -145.5t-87.5 -114t-74.5 -114t-30.5 -122q0 -229 216 -229q57 0 122.5 19t102.5 39l37 19l20 -88q-5 -4 -14.5 -11t-40.5 -25t-64.5 -32t-83.5 -25t-100 -11 q-181 0 -283 88.5t-102 255.5zM326 870q0 56 39 95t94 39t93 -39t38 -95t-38 -93.5t-93 -37.5q-56 0 -94.5 38t-38.5 93z" />
<glyph unicode="&#xc0;" horiz-adv-x="1269" d="M53 23l471 1429h221l472 -1429h-189l-133 442q-1 0 -113.5 -5t-146.5 -5t-146.5 5t-113.5 5l-133 -442h-189zM291 1917h180l170 -309h-90zM406 563q204 6 229 6t229 -6l-229 756z" />
<glyph unicode="&#xc1;" horiz-adv-x="1269" d="M53 23l471 1429h221l472 -1429h-189l-133 442q-1 0 -113.5 -5t-146.5 -5t-146.5 5t-113.5 5l-133 -442h-189zM406 563q204 6 229 6t229 -6l-229 756zM629 1608l170 309h180l-260 -309h-90z" />
<glyph unicode="&#xc2;" horiz-adv-x="1269" d="M53 23l471 1429h221l472 -1429h-189l-133 442q-1 0 -113.5 -5t-146.5 -5t-146.5 5t-113.5 5l-133 -442h-189zM328 1608l260 309h94l260 -309h-160l-147 231l-148 -231h-159zM406 563q204 6 229 6t229 -6l-229 756z" />
<glyph unicode="&#xc3;" horiz-adv-x="1269" d="M53 23l471 1429h221l472 -1429h-189l-133 442q-1 0 -113.5 -5t-146.5 -5t-146.5 5t-113.5 5l-133 -442h-189zM311 1649q0 78 18.5 128t49 72.5t78 24t96.5 -11.5t113 -39q83 -33 128 -35t59.5 19t14.5 69h90q0 -75 -18.5 -123.5t-49 -71t-77 -25.5t-96.5 9t-113 37 q-63 26 -103.5 34t-62 -1.5t-29.5 -30t-8 -55.5h-90zM406 563q204 6 229 6t229 -6l-229 756z" />
<glyph unicode="&#xc4;" horiz-adv-x="1269" d="M53 23l471 1429h221l472 -1429h-189l-133 442q-1 0 -113.5 -5t-146.5 -5t-146.5 5t-113.5 5l-133 -442h-189zM352 1763q0 46 32.5 78.5t78.5 32.5t79 -32.5t33 -78.5t-33 -79t-79 -33t-78.5 33t-32.5 79zM406 563q204 6 229 6t229 -6l-229 756zM694 1763q0 46 33.5 78.5 t79.5 32.5t78.5 -32.5t32.5 -78.5t-32.5 -79t-78.5 -33t-79.5 33t-33.5 79z" />
<glyph unicode="&#xc5;" horiz-adv-x="1257" d="M47 23l471 1429h221l471 -1429h-188l-133 442q-1 0 -113.5 -5t-146.5 -5t-146.5 5t-113.5 5l-133 -442h-189zM399 563q204 6 230 6q25 0 229 -6l-229 756zM471 1763q0 64 46.5 110t111.5 46t111 -46t46 -110q0 -66 -46 -111.5t-111 -45.5t-111.5 45.5t-46.5 111.5z M547 1763q0 -34 24 -58t58 -24t58 24t24 58t-24 58t-58 24t-58 -24t-24 -58z" />
<glyph unicode="&#xc6;" horiz-adv-x="1380" d="M41 23l469 1429h788v-88l-505 -8l16 -572l309 -10v-76l-309 -8v-571l530 -10v-86h-716v432q-25 0 -76.5 2t-109.5 4.5t-75 3.5l-133 -442h-188zM393 563q198 6 230 6v750z" />
<glyph unicode="&#xc7;" horiz-adv-x="1286" d="M88 737q0 356 168.5 548t517.5 192q102 0 191 -19t127 -38l38 -19l-20 -98q-13 5 -38 13.5t-112 22t-186 13.5q-229 0 -355 -163.5t-126 -451.5q0 -289 126 -450.5t355 -161.5q112 0 220 23t160 46l52 23l21 -98q-6 -4 -18.5 -11t-52.5 -25.5t-83.5 -33.5t-110 -29 t-133.5 -18l-49 -37q54 -10 79.5 -39t25.5 -65q0 -64 -43 -105t-111 -41q-36 0 -73 11.5t-56 22.5l-18 11l20 56q49 -11 86 -11q24 0 43 10.5t19 32.5q0 25 -30.5 40.5t-72.5 15.5v59l39 41q-600 44 -600 733z" />
<glyph unicode="&#xc8;" horiz-adv-x="950" d="M123 23v1429h778v-88l-608 -8l16 -572l412 -10v-76l-410 -8v-571l631 -10v-86h-819zM188 1917h181l170 -309h-90z" />
<glyph unicode="&#xc9;" horiz-adv-x="950" d="M123 23v1429h778v-88l-608 -8l16 -572l412 -10v-76l-410 -8v-571l631 -10v-86h-819zM526 1608l170 309h181l-261 -309h-90z" />
<glyph unicode="&#xca;" horiz-adv-x="950" d="M123 23v1429h778v-88l-608 -8l16 -572l412 -10v-76l-410 -8v-571l631 -10v-86h-819zM225 1608l260 309h95l260 -309h-160l-148 231l-147 -231h-160z" />
<glyph unicode="&#xcb;" horiz-adv-x="950" d="M123 23v1429h778v-88l-608 -8l16 -572l412 -10v-76l-410 -8v-571l631 -10v-86h-819zM250 1763q0 46 32 78.5t78 32.5t79.5 -32.5t33.5 -78.5t-33.5 -79t-79.5 -33t-78 33t-32 79zM592 1763q0 46 33.5 78.5t79.5 32.5t78 -32.5t32 -78.5t-32 -79t-78 -33t-79.5 33 t-33.5 79z" />
<glyph unicode="&#xcc;" horiz-adv-x="575" d="M6 1917h180l170 -309h-90zM258 23v1429h184v-1429h-184z" />
<glyph unicode="&#xcd;" horiz-adv-x="575" d="M133 23h184v1429h-184v-1429zM219 1608l170 309h180l-260 -309h-90z" />
<glyph unicode="&#xce;" horiz-adv-x="677" d="M31 1606l260 311h94l260 -311h-160l-147 231l-148 -231h-159zM246 23v1429h184v-1429h-184z" />
<glyph unicode="&#xcf;" horiz-adv-x="622" d="M29 1763q0 46 32 78.5t78 32.5t79.5 -32.5t33.5 -78.5t-33.5 -79t-79.5 -33t-78 33t-32 79zM219 23v1429h184v-1429h-184zM371 1763q0 46 33 78.5t79 32.5t78.5 -32.5t32.5 -78.5t-32.5 -79t-78.5 -33t-79 33t-33 79z" />
<glyph unicode="&#xd0;" horiz-adv-x="1460" d="M66 690v94h206v668h455q142 0 251 -35t181.5 -98t118.5 -158t66 -208.5t20 -256.5q0 -168 -32.5 -289t-105.5 -209.5t-197 -131.5t-302 -43h-455v667h-206zM459 111l268 8q237 9 333.5 145.5t96.5 431.5q0 149 -22 264t-71 204t-133.5 137.5t-203.5 52.5l-268 10v-580 l405 -10v-76l-405 -8v-579z" />
<glyph unicode="&#xd1;" horiz-adv-x="1337" d="M123 23v1429h203l702 -1186v1186h184v-1429h-202l-705 1179v-1179h-182zM344 1649q0 78 18.5 128t49 72.5t77.5 24t96 -11.5t113 -39q83 -33 128 -35t60 19t15 69h90q0 -75 -18.5 -123.5t-49 -71t-77 -25.5t-96.5 9t-113 37q-63 26 -103.5 34t-62 -1.5t-29.5 -30 t-8 -55.5h-90z" />
<glyph unicode="&#xd2;" horiz-adv-x="1556" d="M92 737q0 175 41 310.5t123.5 232t214 147t307.5 50.5t307.5 -50.5t214 -147t123.5 -232t41 -310.5q0 -737 -686 -737t-686 737zM297 737q0 -289 126 -450.5t355 -161.5t355.5 162t126.5 450t-126.5 451.5t-355.5 163.5t-355 -163.5t-126 -451.5zM434 1917h180l170 -309 h-90z" />
<glyph unicode="&#xd3;" horiz-adv-x="1556" d="M92 737q0 175 41 310.5t123.5 232t214 147t307.5 50.5t307.5 -50.5t214 -147t123.5 -232t41 -310.5q0 -737 -686 -737t-686 737zM297 737q0 -289 126 -450.5t355 -161.5t355.5 162t126.5 450t-126.5 451.5t-355.5 163.5t-355 -163.5t-126 -451.5zM772 1608l170 309h180 l-260 -309h-90z" />
<glyph unicode="&#xd4;" horiz-adv-x="1556" d="M92 737q0 175 41 310.5t123.5 232t214 147t307.5 50.5t307.5 -50.5t214 -147t123.5 -232t41 -310.5q0 -737 -686 -737t-686 737zM297 737q0 -289 126 -450.5t355 -161.5t355.5 162t126.5 450t-126.5 451.5t-355.5 163.5t-355 -163.5t-126 -451.5zM471 1606l260 311h94 l260 -311h-159l-148 231l-147 -231h-160z" />
<glyph unicode="&#xd5;" horiz-adv-x="1556" d="M92 737q0 175 41 310.5t123.5 232t214 147t307.5 50.5t307.5 -50.5t214 -147t123.5 -232t41 -310.5q0 -737 -686 -737t-686 737zM297 737q0 -289 126 -450.5t355 -161.5t355.5 162t126.5 450t-126.5 451.5t-355.5 163.5t-355 -163.5t-126 -451.5zM455 1649q0 78 18.5 128 t49 72.5t77.5 24t96 -11.5t113 -39q83 -33 128 -35t60 19t15 69h90q0 -75 -18.5 -123.5t-49 -71t-77 -25.5t-96.5 9t-113 37q-63 26 -103.5 34t-62 -1.5t-29.5 -30t-8 -55.5h-90z" />
<glyph unicode="&#xd6;" horiz-adv-x="1556" d="M92 737q0 175 41 310.5t123.5 232t214 147t307.5 50.5t307.5 -50.5t214 -147t123.5 -232t41 -310.5q0 -737 -686 -737t-686 737zM297 737q0 -289 126 -450.5t355 -161.5t355.5 162t126.5 450t-126.5 451.5t-355.5 163.5t-355 -163.5t-126 -451.5zM496 1763q0 46 32 78.5 t78 32.5t79.5 -32.5t33.5 -78.5t-33.5 -79t-79.5 -33t-78 33t-32 79zM838 1763q0 46 33 78.5t79 32.5t78.5 -32.5t32.5 -78.5t-32.5 -79t-78.5 -33t-79 33t-33 79z" />
<glyph unicode="&#xd7;" horiz-adv-x="761" d="M100 467l201 199l-201 200l80 82l201 -200l201 200l80 -82l-201 -200l201 -199l-80 -82l-201 201l-201 -201z" />
<glyph unicode="&#xd8;" horiz-adv-x="1556" d="M92 737q0 175 41 310.5t123.5 232t214 147t307.5 50.5q214 0 359 -74l120 184l97 -61q-49 -78 -117 -187q227 -182 227 -602q0 -737 -686 -737q-211 0 -358 72l-121 -183l-96 62q46 75 114 184q-225 177 -225 602zM297 737q0 -287 121 -444q59 93 169.5 267.5 t135.5 213.5q8 13 326 496q-114 82 -271 82q-229 0 -355 -163.5t-126 -451.5zM508 205q113 -80 270 -80q229 0 355.5 162t126.5 450t-121 445q-7 -11 -305 -480q-22 -35 -140.5 -214t-185.5 -283z" />
<glyph unicode="&#xd9;" horiz-adv-x="1294" d="M102 469v983h183v-983q0 -118 50 -201t130.5 -121t181.5 -38t181 38t130 121t50 201v983h184v-983q0 -96 -32 -178.5t-96 -148.5t-171 -104t-246 -38t-246 38t-171 104t-96 148.5t-32 178.5zM303 1917h180l170 -309h-90z" />
<glyph unicode="&#xda;" horiz-adv-x="1294" d="M102 469v983h183v-983q0 -118 50 -201t130.5 -121t181.5 -38t181 38t130 121t50 201v983h184v-983q0 -96 -32 -178.5t-96 -148.5t-171 -104t-246 -38t-246 38t-171 104t-96 148.5t-32 178.5zM641 1608l170 309h180l-260 -309h-90z" />
<glyph unicode="&#xdb;" horiz-adv-x="1294" d="M102 469v983h183v-983q0 -118 50 -201t130.5 -121t181.5 -38t181 38t130 121t50 201v983h184v-983q0 -96 -32 -178.5t-96 -148.5t-171 -104t-246 -38t-246 38t-171 104t-96 148.5t-32 178.5zM340 1606l260 311h94l260 -311h-159l-148 231l-147 -231h-160z" />
<glyph unicode="&#xdc;" horiz-adv-x="1294" d="M102 469v983h183v-983q0 -118 50 -201t130.5 -121t181.5 -38t181 38t130 121t50 201v983h184v-983q0 -96 -32 -178.5t-96 -148.5t-171 -104t-246 -38t-246 38t-171 104t-96 148.5t-32 178.5zM365 1763q0 46 32 78.5t78 32.5t79.5 -32.5t33.5 -78.5t-33.5 -79t-79.5 -33 t-78 33t-32 79zM707 1763q0 46 33 78.5t79 32.5t78.5 -32.5t32.5 -78.5t-32.5 -79t-78.5 -33t-79 33t-33 79z" />
<glyph unicode="&#xdd;" horiz-adv-x="1257" d="M39 1452h209l381 -676l381 676h209l-498 -797v-632h-184v632zM623 1608l170 309h180l-260 -309h-90z" />
<glyph unicode="&#xde;" horiz-adv-x="1124" d="M123 23v1429h184v-254h283q151 0 253 -29.5t159 -90.5t80.5 -142.5t23.5 -198.5t-23.5 -198.5t-80.5 -142.5t-159 -90.5t-253 -29.5h-283v-253h-184zM307 387h283q86 0 143 15.5t100 54t62.5 107.5t19.5 173t-19.5 172.5t-62 107.5t-100.5 54.5t-143 15.5h-283v-700z" />
<glyph unicode="&#xdf;" horiz-adv-x="1181" d="M119 23v1241q0 54 11.5 102.5t39.5 93.5t69.5 78t107 52.5t147.5 19.5q241 0 363 -108t122 -300q0 -96 -38 -170t-114 -147q-61 -44 19 -82q22 -10 32.5 -15t42.5 -24t51.5 -37t47.5 -50.5t44.5 -67t29 -85t12.5 -106.5q0 -209 -125.5 -313.5t-341.5 -104.5 q-68 0 -125.5 26t-87.5 60l35 43q68 -33 157 -33q47 0 98 21.5t96 60.5t74 102t29 138q0 111 -43.5 179.5t-132.5 123.5q-79 48 -97.5 87t13.5 77q133 168 133 317q0 75 -12 127.5t-43 96t-90.5 65.5t-148.5 22q-59 0 -99 -21t-58.5 -59.5t-25 -77.5t-6.5 -91v-1241h-186z " />
<glyph unicode="&#xe0;" horiz-adv-x="1095" d="M66 360q0 156 108 231t334 75q44 0 101.5 -2.5t112 -6t66.5 -4.5v13q0 89 -30.5 162t-95.5 120t-154 47q-73 0 -134 -7.5t-86 -15.5l-24 -7l-20 65q11 6 31.5 15t89 24.5t143.5 15.5q240 0 350.5 -111t110.5 -308q0 -89 -10.5 -265t-3.5 -258.5t44 -119.5h-159 q-43 43 -56 133q-84 -156 -286 -156q-99 0 -176 20.5t-124.5 54t-77.5 81.5t-42 97.5t-12 106.5zM188 1513h181l170 -311h-90zM258 360q0 -270 240 -270q116 0 198 63.5t82 163.5l4 116t4 140h-278q-111 0 -180.5 -49t-69.5 -164z" />
<glyph unicode="&#xe1;" horiz-adv-x="1095" d="M66 360q0 156 108 231t334 75q44 0 101.5 -2.5t112 -6t66.5 -4.5v13q0 89 -30.5 162t-95.5 120t-154 47q-73 0 -134 -7.5t-86 -15.5l-24 -7l-20 65q11 6 31.5 15t89 24.5t143.5 15.5q240 0 350.5 -111t110.5 -308q0 -89 -10.5 -265t-3.5 -258.5t44 -119.5h-159 q-43 43 -56 133q-84 -156 -286 -156q-99 0 -176 20.5t-124.5 54t-77.5 81.5t-42 97.5t-12 106.5zM258 360q0 -270 240 -270q116 0 198 63.5t82 163.5l4 116t4 140h-278q-111 0 -180.5 -49t-69.5 -164zM526 1202l170 311h181l-261 -311h-90z" />
<glyph unicode="&#xe2;" horiz-adv-x="1095" d="M66 360q0 156 108 231t334 75q44 0 101.5 -2.5t112 -6t66.5 -4.5v13q0 89 -30.5 162t-95.5 120t-154 47q-73 0 -134 -7.5t-86 -15.5l-24 -7l-20 65q11 6 31.5 15t89 24.5t143.5 15.5q240 0 350.5 -111t110.5 -308q0 -89 -10.5 -265t-3.5 -258.5t44 -119.5h-159 q-43 43 -56 133q-84 -156 -286 -156q-99 0 -176 20.5t-124.5 54t-77.5 81.5t-42 97.5t-12 106.5zM225 1202l260 311h95l260 -311h-160l-148 232l-147 -232h-160zM258 360q0 -270 240 -270q116 0 198 63.5t82 163.5l4 116t4 140h-278q-111 0 -180.5 -49t-69.5 -164z" />
<glyph unicode="&#xe3;" horiz-adv-x="1095" d="M66 360q0 156 108 231t334 75q44 0 101.5 -2.5t112 -6t66.5 -4.5v13q0 89 -30.5 162t-95.5 120t-154 47q-73 0 -134 -7.5t-86 -15.5l-24 -7l-20 65q11 6 31.5 15t89 24.5t143.5 15.5q240 0 350.5 -111t110.5 -308q0 -89 -10.5 -265t-3.5 -258.5t44 -119.5h-159 q-43 43 -56 133q-84 -156 -286 -156q-99 0 -176 20.5t-124.5 54t-77.5 81.5t-42 97.5t-12 106.5zM209 1243q0 79 18.5 129t49 72t77.5 23.5t96 -11.5t113 -39q63 -25 103.5 -32.5t62 2.5t29.5 30.5t8 55.5h90q0 -75 -18.5 -124t-49 -71.5t-77 -26t-96.5 8t-113 36.5 q-63 26 -103.5 34t-62 -1.5t-29.5 -30t-8 -55.5h-90zM258 360q0 -270 240 -270q116 0 198 63.5t82 163.5l4 116t4 140h-278q-111 0 -180.5 -49t-69.5 -164z" />
<glyph unicode="&#xe4;" horiz-adv-x="1095" d="M66 360q0 156 108 231t334 75q44 0 101.5 -2.5t112 -6t66.5 -4.5v13q0 89 -30.5 162t-95.5 120t-154 47q-73 0 -134 -7.5t-86 -15.5l-24 -7l-20 65q11 6 31.5 15t89 24.5t143.5 15.5q240 0 350.5 -111t110.5 -308q0 -89 -10.5 -265t-3.5 -258.5t44 -119.5h-159 q-43 43 -56 133q-84 -156 -286 -156q-99 0 -176 20.5t-124.5 54t-77.5 81.5t-42 97.5t-12 106.5zM250 1358q0 46 32 78t78 32t79.5 -32.5t33.5 -77.5q0 -46 -33.5 -78.5t-79.5 -32.5t-78 32.5t-32 78.5zM258 360q0 -270 240 -270q116 0 198 63.5t82 163.5l4 116t4 140h-278 q-111 0 -180.5 -49t-69.5 -164zM592 1358q0 45 33.5 77.5t79.5 32.5t78 -32t32 -78t-32 -78.5t-78 -32.5t-79.5 32.5t-33.5 78.5z" />
<glyph unicode="&#xe5;" horiz-adv-x="1095" d="M66 360q0 156 108 231t334 75q44 0 101.5 -2.5t112 -6t66.5 -4.5v13q0 89 -30.5 162t-95.5 120t-154 47q-73 0 -134 -7.5t-86 -15.5l-24 -7l-20 65q11 6 31.5 15t89 24.5t143.5 15.5q240 0 350.5 -111t110.5 -308q0 -89 -10.5 -265t-3.5 -258.5t44 -119.5h-159 q-43 43 -56 133q-84 -156 -286 -156q-99 0 -176 20.5t-124.5 54t-77.5 81.5t-42 97.5t-12 106.5zM258 360q0 -270 240 -270q116 0 198 63.5t82 163.5l4 116t4 140h-278q-111 0 -180.5 -49t-69.5 -164zM375 1358q0 65 46.5 111.5t110.5 46.5t111 -47t47 -111 q0 -66 -46.5 -112t-111.5 -46t-111 46t-46 112zM451 1358q0 -34 23.5 -58t57.5 -24t58 24t24 58t-24 58t-58 24t-57.5 -24t-23.5 -58z" />
<glyph unicode="&#xe6;" horiz-adv-x="1826" d="M66 360q0 156 108 231t334 75q44 0 101.5 -2.5t112 -6t66.5 -4.5v13q0 89 -30.5 162t-95.5 120t-154 47q-73 0 -133.5 -7.5t-84.5 -15.5l-24 -7l-20 65q11 6 31 15t88 24.5t143 15.5q272 0 385 -151q122 151 399 151q209 0 335 -116t126 -303v-93h-782q0 -21 -4 -61 q6 -200 88.5 -311t236.5 -111q87 0 179.5 21t142.5 42l49 21l20 -86q-5 -4 -15 -9.5t-45.5 -21t-77 -27t-110 -21t-143.5 -9.5q-303 0 -420 180q-114 -180 -374 -180q-99 0 -176 20.5t-124.5 54t-77.5 81.5t-42 97.5t-12 106.5zM258 360q0 -270 240 -270q116 0 198.5 63.5 t83.5 163.5q0 29 1.5 90.5t3 112t1.5 53.5h-278q-111 0 -180.5 -49t-69.5 -164zM973 651q2 0 267.5 7.5t332.5 7.5q0 88 -30.5 161.5t-96 120.5t-154.5 47q-139 0 -219.5 -90t-99.5 -254z" />
<glyph unicode="&#xe7;" horiz-adv-x="997" d="M88 543q0 94 14 171t50 147.5t93 118.5t148 76.5t211 28.5q73 0 138.5 -13.5t94.5 -27.5l29 -14l-20 -86q-78 31 -242 31q-162 0 -245 -110t-83 -322t83 -322t245 -110q84 0 161.5 15.5t113.5 31.5l36 16l21 -86q-11 -7 -31.5 -18t-85.5 -33.5t-133 -30.5l-53 -41 q56 -10 81 -38.5t25 -65.5q0 -65 -43 -105.5t-112 -40.5q-36 0 -72.5 11.5t-55.5 22.5l-18 11l21 56q47 -11 84 -11q24 0 42.5 10t18.5 33q0 25 -30 40.5t-72 15.5v59l39 39q-130 9 -221 54.5t-140.5 121.5t-70.5 164.5t-21 200.5z" />
<glyph unicode="&#xe8;" horiz-adv-x="1142" d="M94 543q0 542 506 542q102 0 185 -27.5t134.5 -70.5t86.5 -99.5t49 -111.5t14 -110v-93h-795v-30q0 -215 83 -334t243 -119q87 0 179.5 21t142.5 42l49 21l20 -86q-5 -4 -15 -9.5t-45.5 -21t-77 -27t-110 -21t-143.5 -9.5q-116 0 -205 28.5t-145 76.5t-92 119t-50 148 t-14 171zM233 1513h181l170 -311h-90zM281 651q29 1 170 5t273 7t181 3q0 137 -80.5 233t-224.5 96q-139 0 -219.5 -90t-99.5 -254z" />
<glyph unicode="&#xe9;" horiz-adv-x="1142" d="M94 543q0 542 506 542q102 0 185 -27.5t134.5 -70.5t86.5 -99.5t49 -111.5t14 -110v-93h-795v-30q0 -215 83 -334t243 -119q87 0 179.5 21t142.5 42l49 21l20 -86q-5 -4 -15 -9.5t-45.5 -21t-77 -27t-110 -21t-143.5 -9.5q-116 0 -205 28.5t-145 76.5t-92 119t-50 148 t-14 171zM281 651q29 1 170 5t273 7t181 3q0 137 -80.5 233t-224.5 96q-139 0 -219.5 -90t-99.5 -254zM571 1202l170 311h181l-260 -311h-91z" />
<glyph unicode="&#xea;" horiz-adv-x="1142" d="M94 543q0 542 506 542q102 0 185 -27.5t134.5 -70.5t86.5 -99.5t49 -111.5t14 -110v-93h-795v-30q0 -215 83 -334t243 -119q87 0 179.5 21t142.5 42l49 21l20 -86q-5 -4 -15 -9.5t-45.5 -21t-77 -27t-110 -21t-143.5 -9.5q-116 0 -205 28.5t-145 76.5t-92 119t-50 148 t-14 171zM270 1202l260 311h95l260 -311h-160l-147 232l-148 -232h-160zM281 651q29 1 170 5t273 7t181 3q0 137 -80.5 233t-224.5 96q-139 0 -219.5 -90t-99.5 -254z" />
<glyph unicode="&#xeb;" horiz-adv-x="1142" d="M94 543q0 542 506 542q102 0 185 -27.5t134.5 -70.5t86.5 -99.5t49 -111.5t14 -110v-93h-795v-30q0 -215 83 -334t243 -119q87 0 179.5 21t142.5 42l49 21l20 -86q-5 -4 -15 -9.5t-45.5 -21t-77 -27t-110 -21t-143.5 -9.5q-116 0 -205 28.5t-145 76.5t-92 119t-50 148 t-14 171zM281 651q29 1 170 5t273 7t181 3q0 137 -80.5 233t-224.5 96q-139 0 -219.5 -90t-99.5 -254zM295 1358q0 46 32.5 78t78.5 32t79 -32t33 -78t-33 -78.5t-79 -32.5t-78.5 32.5t-32.5 78.5zM637 1358q0 45 33.5 77.5t79.5 32.5t78 -32t32 -78t-32 -78.5t-78 -32.5 t-79.5 32.5t-33.5 78.5z" />
<glyph unicode="&#xec;" horiz-adv-x="567" d="M-41 1513h180l170 -311h-90zM213 23v1046h180v-1046h-180z" />
<glyph unicode="&#xed;" horiz-adv-x="567" d="M174 23h180v1046h-180v-1046zM258 1202l170 311h180l-260 -311h-90z" />
<glyph unicode="&#xee;" horiz-adv-x="671" d="M29 1202l260 311h94l260 -311h-160l-147 232l-148 -232h-159zM246 23v1046h180v-1046h-180z" />
<glyph unicode="&#xef;" horiz-adv-x="663" d="M49 1358q0 46 32.5 78t78.5 32t79 -32t33 -78t-33 -78.5t-79 -32.5t-78.5 32.5t-32.5 78.5zM242 23v1046h180v-1046h-180zM391 1358q0 45 33.5 77.5t79.5 32.5t78 -32t32 -78t-32 -78.5t-78 -32.5t-79.5 32.5t-33.5 78.5z" />
<glyph unicode="&#xf0;" horiz-adv-x="1148" d="M66 422q0 142 36 247t103 166.5t154.5 91t197.5 29.5q168 0 315 -67q-25 214 -131 352l-96 -29l-332 -94l-22 72l327 110l54 17q-179 164 -477 164l-21 65q76 17 135 17q134 0 275.5 -46t251.5 -149l198 62l27 -89l-158 -49q158 -207 158 -544q0 -105 -19 -207 t-63.5 -201t-110 -173.5t-166 -120.5t-223.5 -46q-63 0 -122.5 17t-112.5 52.5t-92.5 84.5t-62.5 118.5t-23 149.5zM258 422q0 -81 22 -154t74 -125.5t125 -52.5q74 0 140.5 43.5t113 113.5t81 157t51 175.5t16.5 168.5v67q-146 51 -324 51q-132 0 -215.5 -112.5 t-83.5 -331.5z" />
<glyph unicode="&#xf1;" horiz-adv-x="1134" d="M123 23v1046h180v-131q72 147 250 147q97 0 167.5 -14.5t130.5 -51.5t96.5 -99t56.5 -157.5t20 -227.5v-512h-193v512q0 252 -65 356t-213 104q-103 0 -171 -59.5t-79 -187.5v-725h-180zM250 1243q0 79 18.5 129t49 72t77.5 23.5t96 -11.5t113 -39q63 -25 103.5 -32.5 t62 2.5t29.5 30.5t8 55.5h90q0 -75 -18.5 -124t-49 -71.5t-77 -26t-96.5 8t-113 36.5q-63 26 -103.5 34t-62 -1.5t-29.5 -30t-8 -55.5h-90z" />
<glyph unicode="&#xf2;" horiz-adv-x="1200" d="M94 543q0 95 13 171t47.5 147.5t90 119t145.5 76t210 28.5q119 0 209 -28.5t145.5 -76t90.5 -119t48 -147.5t13 -171t-13 -171.5t-48 -147.5t-90.5 -119t-145.5 -76.5t-209 -28.5q-120 0 -210 28.5t-145.5 76.5t-90 119.5t-47.5 147.5t-13 171zM256 1513h180l170 -311 h-90zM274 543q0 -215 83 -334t243 -119t243 119t83 334q0 214 -83 333t-243 119t-243 -119t-83 -333z" />
<glyph unicode="&#xf3;" horiz-adv-x="1200" d="M94 524q0 95 13 171t47.5 147.5t90 119.5t145.5 76.5t210 28.5q119 0 209 -28.5t145.5 -76.5t90.5 -119t48 -147.5t13 -171.5t-13 -171t-48 -147.5t-90.5 -119t-145.5 -76t-209 -28.5q-120 0 -210 28.5t-145.5 76t-90 119t-47.5 147.5t-13 171zM274 524q0 -214 83 -333 t243 -119t243 119t83 333q0 215 -83 334t-243 119t-243 -119t-83 -334zM594 1184l170 311h180l-260 -311h-90z" />
<glyph unicode="&#xf4;" horiz-adv-x="1200" d="M94 543q0 95 13 171t47.5 147.5t90 119t145.5 76t210 28.5q119 0 209 -28.5t145.5 -76t90.5 -119t48 -147.5t13 -171t-13 -171.5t-48 -147.5t-90.5 -119t-145.5 -76.5t-209 -28.5q-120 0 -210 28.5t-145.5 76.5t-90 119.5t-47.5 147.5t-13 171zM274 543q0 -215 83 -334 t243 -119t243 119t83 334q0 214 -83 333t-243 119t-243 -119t-83 -333zM293 1202l260 311h94l260 -311h-159l-148 232l-147 -232h-160z" />
<glyph unicode="&#xf5;" horiz-adv-x="1200" d="M94 543q0 95 13 171t47.5 147.5t90 119t145.5 76t210 28.5q119 0 209 -28.5t145.5 -76t90.5 -119t48 -147.5t13 -171t-13 -171.5t-48 -147.5t-90.5 -119t-145.5 -76.5t-209 -28.5q-120 0 -210 28.5t-145.5 76.5t-90 119.5t-47.5 147.5t-13 171zM274 543q0 -215 83 -334 t243 -119t243 119t83 334q0 214 -83 333t-243 119t-243 -119t-83 -333zM276 1243q0 79 18.5 129t49 72t78 23.5t96.5 -11.5t113 -39q63 -25 103.5 -32.5t62 2.5t29.5 30.5t8 55.5h90q0 -75 -18.5 -124t-49.5 -71.5t-77.5 -26t-96.5 8t-113 36.5q-83 34 -128 36t-59.5 -19.5 t-14.5 -69.5h-91z" />
<glyph unicode="&#xf6;" horiz-adv-x="1200" d="M94 543q0 95 13 171t47.5 147.5t90 119t145.5 76t210 28.5q119 0 209 -28.5t145.5 -76t90.5 -119t48 -147.5t13 -171t-13 -171.5t-48 -147.5t-90.5 -119t-145.5 -76.5t-209 -28.5q-120 0 -210 28.5t-145.5 76.5t-90 119.5t-47.5 147.5t-13 171zM274 543q0 -215 83 -334 t243 -119t243 119t83 334q0 214 -83 333t-243 119t-243 -119t-83 -333zM317 1358q0 46 32.5 78t78.5 32t79.5 -32.5t33.5 -77.5q0 -46 -33.5 -78.5t-79.5 -32.5t-78.5 32.5t-32.5 78.5zM659 1358q0 45 33.5 77.5t79.5 32.5t78.5 -32t32.5 -78t-32.5 -78.5t-78.5 -32.5 t-79.5 32.5t-33.5 78.5z" />
<glyph unicode="&#xf7;" horiz-adv-x="925" d="M123 610h680v113h-680v-113zM365 426q0 41 29 69.5t69 28.5t68 -28.5t28 -69.5q0 -40 -28 -68t-68 -28t-69 28t-29 68zM365 905q0 41 29 70t69 29t68 -29t28 -70q0 -40 -28 -68t-68 -28t-69 28t-29 68z" />
<glyph unicode="&#xf8;" horiz-adv-x="1200" d="M94 543q0 95 13 171t47.5 147.5t90 119t145.5 76t210 28.5q176 0 285 -59l51 74l61 -43q-18 -29 -47 -72q156 -131 156 -442q0 -95 -13 -171.5t-48 -147.5t-90.5 -119t-145.5 -76.5t-209 -28.5q-176 0 -285 59l-51 -73l-63 43q20 28 49 73q-156 128 -156 441zM274 543 q0 -190 66 -307q37 54 93.5 137.5t90 133t41.5 60.5q7 11 45 65.5t98 140t101 145.5q-83 77 -209 77q-160 0 -243 -119t-83 -333zM391 168q84 -78 209 -78q160 0 243 119t83 334q0 187 -66 307q-41 -62 -92.5 -138.5t-88.5 -131t-42 -62.5q-8 -12 -47.5 -68t-97.5 -138.5 t-101 -143.5z" />
<glyph unicode="&#xf9;" horiz-adv-x="1124" d="M109 551v512h192v-512q0 -252 65.5 -356.5t213.5 -104.5q103 0 170.5 60t78.5 188v725h181v-1045h-181v129q-72 -147 -249 -147q-121 0 -204 24t-145.5 84.5t-92 169.5t-29.5 273zM215 1513h180l170 -311h-90z" />
<glyph unicode="&#xfa;" horiz-adv-x="1124" d="M109 551v512h192v-512q0 -252 65.5 -356.5t213.5 -104.5q103 0 170.5 60t78.5 188v725h181v-1045h-181v129q-72 -147 -249 -147q-121 0 -204 24t-145.5 84.5t-92 169.5t-29.5 273zM553 1202l170 311h180l-260 -311h-90z" />
<glyph unicode="&#xfb;" horiz-adv-x="1124" d="M109 551v512h192v-512q0 -252 65.5 -356.5t213.5 -104.5q103 0 170.5 60t78.5 188v725h181v-1045h-181v129q-72 -147 -249 -147q-121 0 -204 24t-145.5 84.5t-92 169.5t-29.5 273zM252 1202l260 311h94l260 -311h-159l-148 232l-147 -232h-160z" />
<glyph unicode="&#xfc;" horiz-adv-x="1124" d="M109 551v512h192v-512q0 -252 65.5 -356.5t213.5 -104.5q103 0 170.5 60t78.5 188v725h181v-1045h-181v129q-72 -147 -249 -147q-121 0 -204 24t-145.5 84.5t-92 169.5t-29.5 273zM276 1358q0 46 32.5 78t78.5 32t79.5 -32.5t33.5 -77.5q0 -46 -33.5 -78.5t-79.5 -32.5 t-78.5 32.5t-32.5 78.5zM618 1358q0 45 33.5 77.5t79.5 32.5t78.5 -32t32.5 -78t-32.5 -78.5t-78.5 -32.5t-79.5 32.5t-33.5 78.5z" />
<glyph unicode="&#xfd;" horiz-adv-x="1062" d="M59 1069h203l283 -852l297 852h192l-571 -1542h-160l174 500zM541 1202l170 311h180l-260 -311h-90z" />
<glyph unicode="&#xfe;" horiz-adv-x="1095" d="M123 -475v2038h180v-623q76 145 295 145q97 0 169.5 -14.5t135 -51.5t101.5 -98.5t61 -158t22 -227.5q0 -143 -24 -240.5t-80.5 -165.5t-150.5 -98.5t-234 -30.5q-214 0 -295 172v-647h-180zM303 373q0 -129 72.5 -206t222.5 -77q73 0 125.5 19t86 53t53 90.5t27 123 t7.5 159.5q0 247 -74.5 353.5t-224.5 106.5q-151 0 -223 -68.5t-72 -226.5v-327z" />
<glyph unicode="&#xff;" horiz-adv-x="1062" d="M59 1069h203l283 -852l297 852h192l-571 -1542h-160l174 500zM264 1358q0 46 32.5 78t78.5 32t79 -32t33 -78t-33 -78.5t-79 -32.5t-78.5 32.5t-32.5 78.5zM606 1358q0 45 33.5 77.5t79.5 32.5t78 -32t32 -78t-32 -78.5t-78 -32.5t-79.5 32.5t-33.5 78.5z" />
<glyph unicode="&#x152;" horiz-adv-x="1546" d="M96 737q0 290 113.5 473t345.5 242h901v-88l-506 -8l17 -572l309 -10v-76l-307 -8v-571l528 -10v-86h-932q-469 106 -469 714zM301 737q0 -288 125.5 -449.5t353.5 -162.5v1227q-228 -1 -353.5 -164.5t-125.5 -450.5z" />
<glyph unicode="&#x153;" horiz-adv-x="1720" d="M94 543q0 95 13 171t47.5 147.5t90 119t145.5 76t210 28.5q179 0 293 -63q111 63 293 63q209 0 335 -116t126 -303v-93h-787v-30q0 -215 83 -334t243 -119q88 0 180.5 21t141.5 42l48 21l21 -86q-5 -4 -14.5 -9.5t-45 -21t-77 -27t-110 -21t-144.5 -9.5q-182 0 -293 63 q-114 -63 -293 -63q-120 0 -210 28.5t-145.5 76.5t-90 119.5t-47.5 147.5t-13 171zM274 543q0 -215 83 -334t243 -119q112 0 186 62q-106 130 -106 391t106 393q-74 59 -186 59q-160 0 -243 -119t-83 -333zM866 651q2 0 267.5 7.5t332.5 7.5q0 138 -73 233.5t-207 95.5 q-137 0 -218 -90t-102 -254z" />
<glyph unicode="&#x178;" horiz-adv-x="1257" d="M39 1452h209l381 -676l381 676h209l-498 -797v-632h-184v632zM346 1763q0 46 32.5 78.5t78.5 32.5t79 -32.5t33 -78.5t-33 -79t-79 -33t-78.5 33t-32.5 79zM688 1763q0 46 33.5 78.5t79.5 32.5t78 -32.5t32 -78.5t-32 -79t-78 -33t-79.5 33t-33.5 79z" />
<glyph unicode="&#x2c6;" horiz-adv-x="720" d="M53 1202l260 311h95l260 -311h-160l-148 232l-147 -232h-160z" />
<glyph unicode="&#x2dc;" horiz-adv-x="749" d="M53 1243q0 79 18.5 129t49 72t78 23.5t96.5 -11.5t113 -39q83 -33 128 -34.5t59.5 20.5t14.5 70h90q0 -75 -18.5 -124t-49 -71.5t-77 -26t-96.5 8t-113 36.5q-63 26 -103.5 34t-62 -1.5t-29.5 -30t-8 -55.5h-90z" />
<glyph unicode="&#x2000;" horiz-adv-x="959" />
<glyph unicode="&#x2001;" horiz-adv-x="1919" />
<glyph unicode="&#x2002;" horiz-adv-x="959" />
<glyph unicode="&#x2003;" horiz-adv-x="1919" />
<glyph unicode="&#x2004;" horiz-adv-x="639" />
<glyph unicode="&#x2005;" horiz-adv-x="479" />
<glyph unicode="&#x2006;" horiz-adv-x="319" />
<glyph unicode="&#x2007;" horiz-adv-x="319" />
<glyph unicode="&#x2008;" horiz-adv-x="239" />
<glyph unicode="&#x2009;" horiz-adv-x="383" />
<glyph unicode="&#x200a;" horiz-adv-x="106" />
<glyph unicode="&#x2010;" horiz-adv-x="778" d="M123 604v125h528v-125h-528z" />
<glyph unicode="&#x2011;" horiz-adv-x="778" d="M123 604v125h528v-125h-528z" />
<glyph unicode="&#x2012;" horiz-adv-x="778" d="M123 604v125h528v-125h-528z" />
<glyph unicode="&#x2013;" horiz-adv-x="935" d="M123 604v121h688v-121h-688z" />
<glyph unicode="&#x2014;" horiz-adv-x="1230" d="M123 608v113h983v-113h-983z" />
<glyph unicode="&#x2018;" horiz-adv-x="403" d="M58.5 1248q4.5 36 23.5 67l131 198h90l-59 -192q27 -13 43 -40t16 -60q0 -47 -34 -81t-81 -34q-50 0 -82.5 21t-42 53t-5 68z" />
<glyph unicode="&#x2019;" horiz-adv-x="403" d="M102 1106l58 192q-26 14 -42 41.5t-16 59.5q0 47 34 80.5t81 33.5q50 0 82.5 -21t42.5 -52.5t5.5 -67.5t-23.5 -67l-131 -199h-91z" />
<glyph unicode="&#x201a;" horiz-adv-x="448" d="M100 119q0 47 34 80.5t81 33.5q50 0 82.5 -20.5t42.5 -52t5.5 -67t-23.5 -66.5l-132 -199h-90l58 190q-58 33 -58 101z" />
<glyph unicode="&#x201c;" horiz-adv-x="802" d="M101.5 1248q4.5 36 23.5 67l131 198h90l-59 -192q27 -13 43 -40t16 -60q0 -47 -34 -81t-81 -34q-50 0 -82.5 21t-42 53t-5 68zM445.5 1248q4.5 36 23.5 67l131 198h90l-59 -192q27 -13 43 -40t16 -60q0 -47 -34 -81t-81 -34q-50 0 -82.5 21t-42 53t-5 68z" />
<glyph unicode="&#x201d;" horiz-adv-x="800" d="M113 1106l57 192q-26 13 -41.5 41t-15.5 60q0 47 33.5 80.5t80.5 33.5q50 0 82.5 -21t42.5 -52.5t5.5 -67.5t-23.5 -67l-131 -199h-90zM457 1106l59 192q-27 13 -43 40.5t-16 60.5q0 47 33.5 80.5t80.5 33.5q50 0 82.5 -21t42.5 -52.5t5.5 -67.5t-23.5 -67l-131 -199h-90 z" />
<glyph unicode="&#x201e;" horiz-adv-x="800" d="M113 119q0 47 33.5 80.5t80.5 33.5q50 0 82.5 -20.5t42.5 -52t5.5 -67t-23.5 -66.5l-131 -199h-90l57 190q-57 33 -57 101zM457 119q0 47 33.5 80.5t80.5 33.5q50 0 82.5 -20.5t42.5 -52t5.5 -67t-23.5 -66.5l-131 -199h-90l59 190q-59 32 -59 101z" />
<glyph unicode="&#x2022;" horiz-adv-x="593" d="M86 666q0 88 61.5 149.5t149.5 61.5t149.5 -61.5t61.5 -149.5q0 -89 -61.5 -151t-149.5 -62t-149.5 62t-61.5 151z" />
<glyph unicode="&#x2026;" horiz-adv-x="1392" d="M115 131q0 55 38.5 94t94.5 39q54 0 92.5 -39t38.5 -94q0 -54 -38.5 -92.5t-92.5 -38.5q-55 0 -94 38.5t-39 92.5zM563 131q0 55 38.5 94t94.5 39q55 0 93 -38.5t38 -94.5q0 -54 -38 -92.5t-93 -38.5t-94 38.5t-39 92.5zM1014 131q0 55 38.5 94t92.5 39q55 0 94 -39 t39 -94q0 -54 -39 -92.5t-94 -38.5q-54 0 -92.5 38.5t-38.5 92.5z" />
<glyph unicode="&#x202f;" horiz-adv-x="383" />
<glyph unicode="&#x2039;" horiz-adv-x="491" d="M12 545l299 522h90l-208 -522l208 -522h-90z" />
<glyph unicode="&#x203a;" horiz-adv-x="491" d="M90 23l209 522l-209 522h90l299 -522l-299 -522h-90z" />
<glyph unicode="&#x205f;" horiz-adv-x="479" />
<glyph unicode="&#x20ac;" horiz-adv-x="1255" d="M55 559v115h142q-2 20 -2 63q0 46 2 66h-142v115h150q35 271 180.5 415t409.5 144q88 0 166 -19t111 -38l34 -19l-19 -98q-11 5 -32.5 13.5t-97 22t-162.5 13.5q-165 0 -267 -113.5t-133 -320.5h467v-115h-477q0 -10 -1 -32t-1 -34t1 -32.5t1 -30.5h477v-115h-467 q30 -208 132 -321t268 -113q97 0 191 23t140 46l45 23l19 -98q-6 -5 -18 -13t-52 -28.5t-83 -36t-109 -28.5t-133 -13q-522 0 -590 559h-150z" />
<glyph unicode="&#x2122;" horiz-adv-x="1239" d="M86 1343v62h412v-62q-99 -2 -160 -4v-493h-92v493zM590 846v559h100l164 -426l160 426h100v-559h-92v348l-137 -348h-66l-137 358v-358h-92z" />
<glyph unicode="&#x25fc;" horiz-adv-x="1064" d="M0 0v1065h1065v-1065h-1065z" />
</font>
</defs>
</svg>
